<mxfile version="12.2.2" type="github" host="www.draw.io" modified="2019-11-07T23:59:11.511Z" agent="Mozilla/5.0 (Windows NT 10.0; Win64; x64) AppleWebKit/537.36 (KHTML, like Gecko) Chrome/64.0.3282.140 Safari/537.36 Edge/18.17763" etag="1P7AGtL1SfSVZltBV9jI" pages="1">
  <diagram id="wdECdBXpcBgfg_UxZyWG" name="Page-1">
    <mxGraphModel grid="1" dx="1024" dy="562" gridSize="10" guides="1" tooltips="1" connect="1" arrows="1" fold="1" page="1" pageScale="1" pageWidth="850" pageHeight="1100" math="0" shadow="0">
      <root>
        <mxCell id="0"/>
        <mxCell id="1" parent="0"/>
        <mxCell id="fxRW_hMZJcGj5RtCQmR1-1" value="" parent="1" style="rounded=0;whiteSpace=wrap;html=1;" vertex="1">
          <mxGeometry as="geometry" x="200" y="160" width="120" height="60"/>
        </mxCell>
        <mxCell id="fxRW_hMZJcGj5RtCQmR1-2" value="Actor" parent="1" style="shape=umlActor;verticalLabelPosition=bottom;labelBackgroundColor=#ffffff;verticalAlign=top;html=1;outlineConnect=0;" vertex="1">
          <mxGeometry as="geometry" x="100" y="170" width="30" height="60"/>
        </mxCell>
        <mxCell id="fxRW_hMZJcGj5RtCQmR1-3" value="" parent="1" style="endArrow=classic;startArrow=classic;html=1;" edge="1">
          <mxGeometry as="geometry" width="50" height="50" relative="1">
            <mxPoint as="sourcePoint" x="130" y="225"/>
            <mxPoint as="targetPoint" x="180" y="175"/>
          </mxGeometry>
        </mxCell>
        <mxCell id="fxRW_hMZJcGj5RtCQmR1-4" value="protocols" parent="1" style="text;html=1;resizable=0;points=[];autosize=1;align=left;verticalAlign=top;spacingTop=-4;" vertex="1">
          <mxGeometry as="geometry" x="170" y="187" width="60" height="20"/>
        </mxCell>
      </root>
    </mxGraphModel>
  </diagram>
</mxfile>
